<?xml version="1.0" encoding="utf-8"?>
<!-- Generator: Adobe Illustrator 25.0.0, SVG Export Plug-In . SVG Version: 6.00 Build 0)  -->
<svg version="1.1" id="Capa_1" xmlns="http://www.w3.org/2000/svg" xmlns:xlink="http://www.w3.org/1999/xlink" x="0px" y="0px"
	 viewBox="0 0 800 800" style="enable-background:new 0 0 800 800;" xml:space="preserve">
<style type="text/css">
	.st0{fill:#FFFFFF;stroke:#FFFFFF;stroke-width:5;stroke-miterlimit:10;}
	.st1{fill:#FFFFFF;stroke:#FFFFFF;stroke-width:4;stroke-miterlimit:10;}
</style>
<g>
	<path class="st0" d="M110.4,552.4l-24,61.4h9.2l22.9-58.3C118.4,555.3,110.8,552.6,110.4,552.4z"/>
	<path class="st0" d="M258.7,201.6h-11.2l-134.1,343c0.2,0.5,6.5,2.9,8.3,3.1l25.3-64.8l3.4-8.5L252.6,213L355,474.2l3.4,8.7
		l52,130.6h9.2L258.7,201.6z"/>
	<g>
		<path class="st0" d="M365.8,335.5c-22.6,0-36.5,4.1-49.5,13.5l3.4,8.5c11.8-8.9,25.5-13.2,45.9-13.2c67,0,96.8,51.6,96.8,93
			c0,44.1-22.6,78.6-72.3,100.4l3.1,8.1c52-21.9,79.1-59.6,79.1-108.5C472.2,385.3,432.8,335.5,365.8,335.5z"/>
		<path class="st0" d="M308.2,354.8c-64.6,51.3-27.1,198.7-150.1,198.7c-71.7,0-103.3-55.6-103.3-105.1c0-31.1,7-64.6,30.7-88
			c6.3-6.3,20-19.7,41.5-24.2c13.9-2.9,25.5-0.9,34.5,0.5c8.5,1.4,23.5,6,30,8.5c0.2-0.5,1.4-3.6,1.4-3.6l1.8-4.7
			c-6.7-2.7-21-7.4-30.2-8.9c-7-1.2-20.8-3.4-36.9-0.5c-29.4,5.3-48,24.6-53.3,30.2c-20.6,22.4-28.7,53.8-28.7,90.7
			c0,58.5,39,113.1,112.5,113.1c130.9,0,93.5-147,153.7-197.9C311.6,363.6,308.4,355.2,308.2,354.8z"/>
	</g>
	<g>
		<g>
			<line class="st0" x1="316.2" y1="348.7" x2="319.6" y2="357.5"/>
		</g>
	</g>
	<g>
		<g>
			<line class="st0" x1="308.2" y1="354.8" x2="311.8" y2="363.8"/>
		</g>
	</g>
	<polygon class="st0" points="321.2,361.3 313.1,366.9 306.8,351.2 315.2,346.1 	"/>
</g>
<g>
	<path class="st1" d="M383,248.2c0.7-0.7,1.3-1,2.3-1c1.7,0,2.6,1.3,2.6,2.6v65.6c0,1.3-1,2.6-2.6,2.6s-2.6-1.3-2.6-2.6v-17.9h-22.2
		c-1.3,0-2.3-1-2.3-2.3s1-2.3,2.3-2.3h22.2v-36.4l-51,60.9c-0.3,0.3-1.3,1-2,1c-1.3,0-2.6-1.3-2.6-2.6c0-0.7,0.3-1,0.7-1.7
		L383,248.2z"/>
	<path class="st1" d="M401.9,285.3c0-11.6,7-19.5,18.5-19.5c1.3,0,2.3,1,2.3,2.3s-1,2.3-2.3,2.3c-8.3,0-13.6,5.3-13.6,14.9v30.1
		c0,1.3-1,2.6-2.6,2.6s-2.6-1.3-2.6-2.6v-30.1H401.9z"/>
	<path class="st1" d="M427.7,291.9c0-14.6,11.3-26.2,26.2-26.2c8.3,0,15.2,3.6,19.5,8.9c0.3,0.3,0.7,1.3,0.7,2c0,1.3-1,2.3-2.6,2.3
		c-1,0-1.3-0.3-2-1c-3.6-4.3-9.3-7.3-15.9-7.3c-11.6,0-21.2,9.6-21.2,21.9s9.3,21.9,21.2,21.9c6.6,0,12.3-3,15.9-7.6
		c0.7-0.7,1.3-1,2-1c1.3,0,2.6,1,2.6,2.3c0,0.3-0.3,1.3-0.7,1.7c-4.6,5.3-11.6,8.9-19.5,8.9C439.3,318.4,427.7,306.8,427.7,291.9z"
		/>
	<path class="st1" d="M483.3,291.9c0-14.6,11.3-26.2,26.2-26.2c14.6,0,25.8,11.6,25.8,26.2s-11.3,26.2-25.8,26.2
		C494.6,318.4,483.3,306.8,483.3,291.9z M530,291.9c0-12.3-9.3-21.9-20.9-21.9s-21.2,9.6-21.2,21.9c0,11.9,9.3,21.9,21.2,21.9
		C521.1,313.7,530,304.1,530,291.9z"/>
	<path class="st1" d="M546.9,303.5c1,0,2,0.7,2.3,1.7c0.3,4.3,4,8.6,10.6,8.6c6.3,0,9.9-4.6,9.9-9.3c0-6-4.3-8.9-10.3-10.9
		c-7.3-2.3-14.2-5-14.2-14.6c0-7.9,6-13.6,14.6-13.6c8.3,0,14.6,5.3,14.6,12.6c0,1.3-1,2.3-2.3,2.3c-0.7,0-2-0.3-2.3-2
		c-0.3-4.3-4-8.3-10.3-8.3s-9.6,4.3-9.6,9.3c0,6.3,5.3,8.6,12.3,10.9c6.3,2,12.6,5.6,12.6,14.2c0,7.3-6.3,13.6-14.9,13.6
		c-8.3,0-14.9-6-14.9-12.6C544.6,304.5,545.6,303.5,546.9,303.5z"/>
	<path class="st1" d="M481.6,399.9c0-1.3,1-2.6,2.6-2.6c1.3,0,2.3,1,2.6,2c0.3,5.6,6.3,12.3,15.2,12.3c9.3,0,15.2-7,15.2-13.9
		c0-9.9-7.9-13.2-13.2-14.6l-5-1.3c-5.6-1.7-16.6-5.6-16.6-18.5c0-10.6,8.3-18.2,19.9-18.2s19.5,7.6,19.5,16.6c0,1.3-1,2.6-2.6,2.6
		c-1.7,0-2.3-1-2.6-2.3c-0.3-6-5.6-11.9-14.6-11.9c-8.9,0-14.6,6.6-14.6,13.6c0,9.9,9.3,12.6,13.9,13.9l4.6,1.3
		c5.6,1.7,16.6,5.3,16.6,19.5c0,9.9-8.6,18.5-20.5,18.5C490.2,416.5,481.6,407.9,481.6,399.9z"/>
	<path class="st1" d="M531.6,390.3c0-14.6,11.6-26.5,26.2-26.5c14.6,0,25.8,11.6,25.8,26.5c0,14.6-11.3,26.2-25.8,26.2
		C543.2,416.5,531.6,404.9,531.6,390.3z M578.6,390.3c0-12.3-9.3-21.9-20.9-21.9c-11.6,0-21.2,9.6-21.2,21.9
		c0,11.9,9.3,21.9,21.2,21.9C569.7,412.2,578.6,402.2,578.6,390.3z"/>
	<path class="st1" d="M593.2,390.3c0-14.6,11.3-26.5,26.2-26.5c8.3,0,15.2,3.6,19.5,8.9c0.3,0.7,0.7,1.3,0.7,2c0,1.3-1,2.3-2.6,2.3
		c-1,0-1.3-0.3-2-1c-3.6-4.3-9.3-7.3-15.9-7.3c-11.6,0-21.2,9.6-21.2,21.9s9.3,21.9,21.2,21.9c6.6,0,12.3-3,15.9-7.6
		c0.7-0.7,1.3-1,2-1c1.3,0,2.6,1,2.6,2.3c0,0.3-0.3,1.3-0.7,1.7c-4.6,5.3-11.6,8.9-19.5,8.9C604.4,416.5,593.2,404.9,593.2,390.3z"
		/>
	<path class="st1" d="M650.8,353.2c0-2,1.3-3.3,3.3-3.3s3.3,1.7,3.3,3.3c0,2-1.7,3.3-3.3,3.3C652.1,356.9,650.8,355.2,650.8,353.2z
		 M651.8,366.5c0-1.3,1-2.6,2.6-2.6c1.3,0,2.6,1,2.6,2.6v47c0,1.3-1,2.6-2.6,2.6s-2.6-1.3-2.6-2.6V366.5z"/>
	<path class="st1" d="M715.3,405.2c-4.6,7-12.3,11.3-21.2,11.3c-14.6,0-25.8-11.6-25.8-26.2s11.3-26.5,25.8-26.5
		c8.9,0,16.6,4.6,21.2,11.3v-8.6c0-1.3,1-2.6,2.6-2.6s2.6,1,2.6,2.6v47c0,1.3-1,2.6-2.6,2.6s-2.6-1.3-2.6-2.6V405.2z M715.3,391
		v-1.7c-0.3-11.6-9.6-20.9-20.9-20.9c-11.6,0-21.2,9.6-21.2,21.9c0,12.3,9.3,21.9,21.2,21.9C706.1,411.8,715,402.9,715.3,391z"/>
	<path class="st1" d="M734.6,347.6c0-1.3,1-2.6,2.6-2.6c1.3,0,2.6,1,2.6,2.6v65.9c0,1.3-1,2.6-2.6,2.6s-2.6-1.3-2.6-2.6V347.6z"/>
</g>
</svg>
