<?xml version="1.0" encoding="utf-8"?>
<!-- Generator: Adobe Illustrator 24.3.0, SVG Export Plug-In . SVG Version: 6.00 Build 0)  -->
<svg version="1.1" id="Capa_1" xmlns="http://www.w3.org/2000/svg" xmlns:xlink="http://www.w3.org/1999/xlink" x="0px" y="0px"
	 viewBox="0 0 800 800" style="enable-background:new 0 0 800 800;" xml:space="preserve">
<style type="text/css">
	.st0{fill:#FFFFFF;}
	.st1{fill:none;}
</style>
<g>
	<path class="st0" d="M180.5,523.5L145,614.2h13.6l33.8-86.1C192.4,527.8,181.1,523.8,180.5,523.5z"/>
	<path class="st0" d="M399.6,5h-16.6L184.8,511.9c0.3,0.7,9.6,4.3,12.3,4.6l37.4-95.7l5-12.6L390.7,21.9L542,407.9l5,12.9l76.8,193
		h13.6L399.6,5z"/>
	<g>
		<g>
			<line class="st1" x1="180.5" y1="523.5" x2="192.4" y2="528.1"/>
		</g>
	</g>
	<g>
		<g>
			<line class="st1" x1="184.8" y1="511.9" x2="197.3" y2="516.9"/>
		</g>
	</g>
	<g>
		<path class="st0" d="M557.9,203c-33.4,0-54,6-73.2,19.9l5,12.6c17.5-13.2,37.7-19.5,67.9-19.5c99,0,143,76.2,143,137.4
			c0,65.2-33.4,116.2-106.9,148.3l4.6,11.9c76.8-32.4,116.9-88.1,116.9-160.3C715.2,276.5,656.9,203,557.9,203z"/>
		<path class="st0" d="M472.8,231.5c-95.4,75.8-40.1,293.7-221.8,293.7c-106,0-152.6-82.1-152.6-155.3c0-46,10.3-95.4,45.4-130.1
			c9.3-9.3,29.5-29.1,61.3-35.8c20.5-4.3,37.7-1.3,51,0.7c12.6,2,34.8,8.9,44.4,12.6c0.3-0.7,2-5.3,2-5.3l2.6-7
			c-9.9-4-31.1-10.9-44.7-13.2c-10.3-1.7-30.8-5-54.6-0.7c-43.4,7.9-70.9,36.4-78.8,44.7c-30.5,33.1-42.4,79.5-42.4,134.1
			c0,86.4,57.6,167.2,166.2,167.2c193.4,0,138.1-217.2,227.1-292.4C477.8,244.4,473.1,232.1,472.8,231.5z"/>
	</g>
	<g>
		<g>
			<line class="st1" x1="484.7" y1="222.5" x2="489.7" y2="235.4"/>
		</g>
	</g>
	<g>
		<g>
			<line class="st1" x1="472.8" y1="231.5" x2="478.1" y2="244.7"/>
		</g>
	</g>
	<polygon class="st0" points="492,241.1 480.1,249.3 470.8,226.2 483.1,218.6 	"/>
	<g>
		<path class="st0" d="M224.5,637.4c0.7-0.7,1.3-1,2.3-1c1.7,0,2.6,1.3,2.6,2.6v65.6c0,1.3-1,2.6-2.6,2.6s-2.6-1.3-2.6-2.6v-17.9
			H202c-1.3,0-2.3-1-2.3-2.3c0-1.3,1-2.3,2.3-2.3h22.2v-36.4l-51,60.9c-0.3,0.3-1.3,1-2,1c-1.3,0-2.6-1.3-2.6-2.6
			c0-0.7,0.3-1,0.7-1.7L224.5,637.4z"/>
		<path class="st0" d="M243.4,674.5c0-11.6,7-19.5,18.5-19.5c1.3,0,2.3,1,2.3,2.3c0,1.3-1,2.3-2.3,2.3c-8.3,0-13.6,5.3-13.6,14.9
			v30.1c0,1.3-1,2.6-2.6,2.6s-2.6-1.3-2.6-2.6v-30.1H243.4z"/>
		<path class="st0" d="M269.2,681.1c0-14.6,11.3-26.2,26.2-26.2c8.3,0,15.2,3.6,19.5,8.9c0.3,0.3,0.7,1.3,0.7,2c0,1.3-1,2.3-2.6,2.3
			c-1,0-1.3-0.3-2-1c-3.6-4.3-9.3-7.3-15.9-7.3c-11.6,0-21.2,9.6-21.2,21.9s9.3,21.9,21.2,21.9c6.6,0,12.3-3,15.9-7.6
			c0.7-0.7,1.3-1,2-1c1.3,0,2.6,1,2.6,2.3c0,0.3-0.3,1.3-0.7,1.7c-4.6,5.3-11.6,8.9-19.5,8.9C280.8,707.6,269.2,696,269.2,681.1z"/>
		<path class="st0" d="M324.8,681.1c0-14.6,11.3-26.2,26.2-26.2c14.6,0,25.8,11.6,25.8,26.2s-11.3,26.2-25.8,26.2
			C336.1,707.6,324.8,696,324.8,681.1z M371.5,681.1c0-12.3-9.3-21.9-20.9-21.9c-11.6,0-21.2,9.6-21.2,21.9
			c0,11.9,9.3,21.9,21.2,21.9C362.6,702.9,371.5,693.3,371.5,681.1z"/>
		<path class="st0" d="M388.4,692.7c1,0,2,0.7,2.3,1.7c0.3,4.3,4,8.6,10.6,8.6c6.3,0,9.9-4.6,9.9-9.3c0-6-4.3-8.9-10.3-10.9
			c-7.3-2.3-14.2-5-14.2-14.6c0-7.9,6-13.6,14.6-13.6c8.3,0,14.6,5.3,14.6,12.6c0,1.3-1,2.3-2.3,2.3c-0.7,0-2-0.3-2.3-2
			c-0.3-4.3-4-8.3-10.3-8.3c-6.3,0-9.6,4.3-9.6,9.3c0,6.3,5.3,8.6,12.3,10.9c6.3,2,12.6,5.6,12.6,14.2c0,7.3-6.3,13.6-14.9,13.6
			c-8.3,0-14.9-6-14.9-12.6C386.1,693.7,387.1,692.7,388.4,692.7z"/>
		<path class="st0" d="M382.1,777.1c0-1.3,1-2.6,2.6-2.6c1.3,0,2.3,1,2.6,2c0.3,5.6,6.3,12.3,15.2,12.3c9.3,0,15.2-7,15.2-13.9
			c0-9.9-7.9-13.2-13.2-14.6l-5-1.3c-5.6-1.7-16.6-5.6-16.6-18.5c0-10.6,8.3-18.2,19.9-18.2c11.6,0,19.5,7.6,19.5,16.6
			c0,1.3-1,2.6-2.6,2.6c-1.7,0-2.3-1-2.6-2.3c-0.3-6-5.6-11.9-14.6-11.9c-8.9,0-14.6,6.6-14.6,13.6c0,9.9,9.3,12.6,13.9,13.9
			l4.6,1.3c5.6,1.7,16.6,5.3,16.6,19.5c0,9.9-8.6,18.5-20.5,18.5C390.7,793.7,382.1,785.1,382.1,777.1z"/>
		<path class="st0" d="M432.1,767.5c0-14.6,11.6-26.5,26.2-26.5s25.8,11.6,25.8,26.5c0,14.6-11.3,26.2-25.8,26.2
			C443.7,793.7,432.1,782.1,432.1,767.5z M479.1,767.5c0-12.3-9.3-21.9-20.9-21.9c-11.6,0-21.2,9.6-21.2,21.9
			c0,11.9,9.3,21.9,21.2,21.9C470.2,789.4,479.1,779.4,479.1,767.5z"/>
		<path class="st0" d="M493.7,767.5c0-14.6,11.3-26.5,26.2-26.5c8.3,0,15.2,3.6,19.5,8.9c0.3,0.7,0.7,1.3,0.7,2c0,1.3-1,2.3-2.6,2.3
			c-1,0-1.3-0.3-2-1c-3.6-4.3-9.3-7.3-15.9-7.3c-11.6,0-21.2,9.6-21.2,21.9s9.3,21.9,21.2,21.9c6.6,0,12.3-3,15.9-7.6
			c0.7-0.7,1.3-1,2-1c1.3,0,2.6,1,2.6,2.3c0,0.3-0.3,1.3-0.7,1.7c-4.6,5.3-11.6,8.9-19.5,8.9C504.9,793.7,493.7,782.1,493.7,767.5z"
			/>
		<path class="st0" d="M551.3,730.4c0-2,1.3-3.3,3.3-3.3c2,0,3.3,1.7,3.3,3.3c0,2-1.7,3.3-3.3,3.3
			C552.6,734.1,551.3,732.4,551.3,730.4z M552.3,743.7c0-1.3,1-2.6,2.6-2.6c1.3,0,2.6,1,2.6,2.6v47c0,1.3-1,2.6-2.6,2.6
			s-2.6-1.3-2.6-2.6V743.7z"/>
		<path class="st0" d="M615.8,782.4c-4.6,7-12.3,11.3-21.2,11.3c-14.6,0-25.8-11.6-25.8-26.2s11.3-26.5,25.8-26.5
			c8.9,0,16.6,4.6,21.2,11.3v-8.6c0-1.3,1-2.6,2.6-2.6s2.6,1,2.6,2.6v47c0,1.3-1,2.6-2.6,2.6s-2.6-1.3-2.6-2.6V782.4z M615.8,768.2
			v-1.7c-0.3-11.6-9.6-20.9-20.9-20.9c-11.6,0-21.2,9.6-21.2,21.9c0,12.3,9.3,21.9,21.2,21.9C606.6,789,615.5,780.1,615.8,768.2z"/>
		<path class="st0" d="M635.1,724.8c0-1.3,1-2.6,2.6-2.6c1.3,0,2.6,1,2.6,2.6v65.9c0,1.3-1,2.6-2.6,2.6s-2.6-1.3-2.6-2.6V724.8z"/>
	</g>
</g>
</svg>
