<?xml version="1.0" encoding="utf-8"?>
<!-- Generator: Adobe Illustrator 24.3.0, SVG Export Plug-In . SVG Version: 6.00 Build 0)  -->
<svg version="1.1" id="Capa_1" xmlns="http://www.w3.org/2000/svg" xmlns:xlink="http://www.w3.org/1999/xlink" x="0px" y="0px"
	 viewBox="0 0 800 800" style="enable-background:new 0 0 800 800;" xml:space="preserve">
<style type="text/css">
	.st0{fill:#FFFFFF;}
</style>
<path class="st0" d="M334,437.5l-10.7,27.4h4.1l10.2-26C337.6,438.8,334.2,437.6,334,437.5z"/>
<path class="st0" d="M400.2,280.9h-5l-59.9,153.1c0.1,0.2,2.9,1.3,3.7,1.4l11.3-28.9l1.5-3.8l45.7-116.7l45.7,116.6l1.5,3.9
	l23.2,58.3h4.1L400.2,280.9z"/>
<g>
	
		<image style="overflow:visible;" width="41" height="32" xlink:href="709C81A3.png"  transform="matrix(0.24 0 0 0.24 331.08 434.28)">
	</image>
	<g>
		<line class="st0" x1="334" y1="437.5" x2="337.6" y2="438.9"/>
	</g>
</g>
<g>
	
		<image style="overflow:visible;" width="41" height="32" xlink:href="709C81A1.png"  transform="matrix(0.24 0 0 0.24 332.52 430.92)">
	</image>
	<g>
		<line class="st0" x1="335.3" y1="434" x2="339.1" y2="435.5"/>
	</g>
</g>
<g>
	<path class="st0" d="M448,340.7c-10.1,0-16.3,1.8-22.1,6l1.5,3.8c5.3-4,11.4-5.9,20.5-5.9c29.9,0,43.2,23,43.2,41.5
		c0,19.7-10.1,35.1-32.3,44.8l1.4,3.6c23.2-9.8,35.3-26.6,35.3-48.4C495.5,362.9,477.9,340.7,448,340.7z"/>
	<path class="st0" d="M422.3,349.3c-28.8,22.9-12.1,88.7-67,88.7c-32,0-46.1-24.8-46.1-46.9c0-13.9,3.1-28.8,13.7-39.3
		c2.8-2.8,8.9-8.8,18.5-10.8c6.2-1.3,11.4-0.4,15.4,0.2c3.8,0.6,10.5,2.7,13.4,3.8c0.1-0.2,0.6-1.6,0.6-1.6l0.8-2.1
		c-3-1.2-9.4-3.3-13.5-4c-3.1-0.5-9.3-1.5-16.5-0.2c-13.1,2.4-21.4,11-23.8,13.5c-9.2,10-12.8,24-12.8,40.5
		c0,26.1,17.4,50.5,50.2,50.5c58.4,0,41.7-65.6,68.6-88.3C423.8,353.2,422.4,349.5,422.3,349.3z"/>
</g>
<g>
	
		<image style="overflow:visible;" width="32" height="42" xlink:href="709C81A7.png"  transform="matrix(0.24 0 0 0.24 423 343.56)">
	</image>
	<g>
		<line class="st0" x1="425.9" y1="346.6" x2="427.4" y2="350.5"/>
	</g>
</g>
<g>
	
		<image style="overflow:visible;" width="33" height="43" xlink:href="709C81A0.png"  transform="matrix(0.24 0 0 0.24 419.4 346.2)">
	</image>
	<g>
		<line class="st0" x1="422.3" y1="349.3" x2="423.9" y2="353.3"/>
	</g>
</g>
<polygon class="st0" points="428.1,352.2 424.5,354.7 421.7,347.7 425.4,345.4 "/>
<g>
	<path class="st0" d="M347.3,471.9c0.2-0.2,0.4-0.3,0.7-0.3c0.5,0,0.8,0.4,0.8,0.8v19.8c0,0.4-0.3,0.8-0.8,0.8s-0.8-0.4-0.8-0.8
		v-5.4h-6.7c-0.4,0-0.7-0.3-0.7-0.7c0-0.4,0.3-0.7,0.7-0.7h6.7v-11l-15.4,18.4c-0.1,0.1-0.4,0.3-0.6,0.3c-0.4,0-0.8-0.4-0.8-0.8
		c0-0.2,0.1-0.3,0.2-0.5L347.3,471.9z"/>
	<path class="st0" d="M353,483.1c0-3.5,2.1-5.9,5.6-5.9c0.4,0,0.7,0.3,0.7,0.7c0,0.4-0.3,0.7-0.7,0.7c-2.5,0-4.1,1.6-4.1,4.5v9.1
		c0,0.4-0.3,0.8-0.8,0.8c-0.5,0-0.8-0.4-0.8-0.8V483.1z"/>
	<path class="st0" d="M360.8,485.1c0-4.4,3.4-7.9,7.9-7.9c2.5,0,4.6,1.1,5.9,2.7c0.1,0.1,0.2,0.4,0.2,0.6c0,0.4-0.3,0.7-0.8,0.7
		c-0.3,0-0.4-0.1-0.6-0.3c-1.1-1.3-2.8-2.2-4.8-2.2c-3.5,0-6.4,2.9-6.4,6.6c0,3.7,2.8,6.6,6.4,6.6c2,0,3.7-0.9,4.8-2.3
		c0.2-0.2,0.4-0.3,0.6-0.3c0.4,0,0.8,0.3,0.8,0.7c0,0.1-0.1,0.4-0.2,0.5c-1.4,1.6-3.5,2.7-5.9,2.7
		C364.3,493.1,360.8,489.6,360.8,485.1z"/>
	<path class="st0" d="M377.6,485.1c0-4.4,3.4-7.9,7.9-7.9c4.4,0,7.8,3.5,7.8,7.9c0,4.4-3.4,7.9-7.8,7.9
		C381,493.1,377.6,489.6,377.6,485.1z M391.7,485.1c0-3.7-2.8-6.6-6.3-6.6s-6.4,2.9-6.4,6.6c0,3.6,2.8,6.6,6.4,6.6
		S391.7,488.8,391.7,485.1z"/>
	<path class="st0" d="M396.8,488.6c0.3,0,0.6,0.2,0.7,0.5c0.1,1.3,1.2,2.6,3.2,2.6c1.9,0,3-1.4,3-2.8c0-1.8-1.3-2.7-3.1-3.3
		c-2.2-0.7-4.3-1.5-4.3-4.4c0-2.4,1.8-4.1,4.4-4.1c2.5,0,4.4,1.6,4.4,3.8c0,0.4-0.3,0.7-0.7,0.7c-0.2,0-0.6-0.1-0.7-0.6
		c-0.1-1.3-1.2-2.5-3.1-2.5c-1.9,0-2.9,1.3-2.9,2.8c0,1.9,1.6,2.6,3.7,3.3c1.9,0.6,3.8,1.7,3.8,4.3c0,2.2-1.9,4.1-4.5,4.1
		c-2.5,0-4.5-1.8-4.5-3.8C396.1,488.9,396.4,488.6,396.8,488.6z"/>
	<path class="st0" d="M394.9,514.1c0-0.4,0.3-0.8,0.8-0.8c0.4,0,0.7,0.3,0.8,0.6c0.1,1.7,1.9,3.7,4.6,3.7c2.8,0,4.6-2.1,4.6-4.2
		c0-3-2.4-4-4-4.4l-1.5-0.4c-1.7-0.5-5-1.7-5-5.6c0-3.2,2.5-5.5,6-5.5c3.5,0,5.9,2.3,5.9,5c0,0.4-0.3,0.8-0.8,0.8s-0.7-0.3-0.8-0.7
		c-0.1-1.8-1.7-3.6-4.4-3.6c-2.7,0-4.4,2-4.4,4.1c0,3,2.8,3.8,4.2,4.2l1.4,0.4c1.7,0.5,5,1.6,5,5.9c0,3-2.6,5.6-6.2,5.6
		C397.5,519.1,394.9,516.5,394.9,514.1z"/>
	<path class="st0" d="M410,511.2c0-4.4,3.5-8,7.9-8c4.4,0,7.8,3.5,7.8,8c0,4.4-3.4,7.9-7.8,7.9C413.5,519.1,410,515.6,410,511.2z
		 M424.2,511.2c0-3.7-2.8-6.6-6.3-6.6s-6.4,2.9-6.4,6.6c0,3.6,2.8,6.6,6.4,6.6S424.2,514.8,424.2,511.2z"/>
	<path class="st0" d="M428.6,511.2c0-4.4,3.4-8,7.9-8c2.5,0,4.6,1.1,5.9,2.7c0.1,0.2,0.2,0.4,0.2,0.6c0,0.4-0.3,0.7-0.8,0.7
		c-0.3,0-0.4-0.1-0.6-0.3c-1.1-1.3-2.8-2.2-4.8-2.2c-3.5,0-6.4,2.9-6.4,6.6c0,3.7,2.8,6.6,6.4,6.6c2,0,3.7-0.9,4.8-2.3
		c0.2-0.2,0.4-0.3,0.6-0.3c0.4,0,0.8,0.3,0.8,0.7c0,0.1-0.1,0.4-0.2,0.5c-1.4,1.6-3.5,2.7-5.9,2.7
		C432,519.1,428.6,515.6,428.6,511.2z"/>
	<path class="st0" d="M446,500c0-0.6,0.4-1,1-1c0.6,0,1,0.5,1,1c0,0.6-0.5,1-1,1C446.4,501.1,446,500.6,446,500z M446.3,504
		c0-0.4,0.3-0.8,0.8-0.8c0.4,0,0.8,0.3,0.8,0.8v14.2c0,0.4-0.3,0.8-0.8,0.8c-0.5,0-0.8-0.4-0.8-0.8V504z"/>
	<path class="st0" d="M465.5,515.7c-1.4,2.1-3.7,3.4-6.4,3.4c-4.4,0-7.8-3.5-7.8-7.9c0-4.4,3.4-8,7.8-8c2.7,0,5,1.4,6.4,3.4V504
		c0-0.4,0.3-0.8,0.8-0.8s0.8,0.3,0.8,0.8v14.2c0,0.4-0.3,0.8-0.8,0.8s-0.8-0.4-0.8-0.8V515.7z M465.5,511.4v-0.5
		c-0.1-3.5-2.9-6.3-6.3-6.3c-3.5,0-6.4,2.9-6.4,6.6c0,3.7,2.8,6.6,6.4,6.6C462.7,517.7,465.4,515,465.5,511.4z"/>
	<path class="st0" d="M471.3,498.3c0-0.4,0.3-0.8,0.8-0.8c0.4,0,0.8,0.3,0.8,0.8v19.9c0,0.4-0.3,0.8-0.8,0.8c-0.5,0-0.8-0.4-0.8-0.8
		V498.3z"/>
</g>
</svg>
