<?xml version="1.0" encoding="utf-8"?>
<!-- Generator: Adobe Illustrator 25.0.0, SVG Export Plug-In . SVG Version: 6.00 Build 0)  -->
<svg version="1.1" id="Capa_1" xmlns="http://www.w3.org/2000/svg" xmlns:xlink="http://www.w3.org/1999/xlink" x="0px" y="0px"
	 viewBox="0 0 800 800" style="enable-background:new 0 0 800 800;" xml:space="preserve">
<style type="text/css">
	.st0{fill:#FFFFFF;stroke:#FFFFFF;stroke-width:5;stroke-miterlimit:10;}
	.st1{fill:none;stroke:#FFFFFF;stroke-width:5;stroke-miterlimit:10;}
</style>
<g>
	<path class="st0" d="M128.5,664.7L84.7,777h16.8l41.8-106.5C143.3,670.1,129.3,665.1,128.5,664.7z"/>
	<path class="st0" d="M399.8,23h-20.5L133.8,650.4c0.4,0.8,11.9,5.3,15.2,5.7l46.3-118.4l6.1-15.6L388.7,43.9L576,521.7l6.1,16
		l95.1,238.9H694L399.8,23z"/>
	<g>
		<g>
			<line class="st1" x1="128.5" y1="664.7" x2="143.3" y2="670.5"/>
		</g>
	</g>
	<g>
		<g>
			<line class="st1" x1="133.8" y1="650.4" x2="149.4" y2="656.5"/>
		</g>
	</g>
	<g>
		<path class="st0" d="M595.7,268c-41.4,0-66.8,7.4-90.6,24.6l6.1,15.6c21.7-16.4,46.7-24.2,84-24.2c122.5,0,177,94.3,177,170.1
			c0,80.7-41.4,143.8-132.4,183.6l5.7,14.8c95.1-40.2,144.7-109,144.7-198.3C790.3,359,718.2,268,595.7,268z"/>
		<path class="st0" d="M490.4,303.3c-118,93.8-49.6,363.5-274.6,363.5c-131.1,0-188.9-101.6-188.9-192.2c0-57,12.7-118,56.1-161
			c11.5-11.5,36.5-36.1,75.8-44.3c25.4-5.3,46.7-1.6,63.1,0.8c15.6,2.5,43,11.1,54.9,15.6c0.4-0.8,2.5-6.6,2.5-6.6l3.3-8.6
			c-12.3-4.9-38.5-13.5-55.3-16.4c-12.7-2-38.1-6.1-67.6-0.8c-53.7,9.8-87.7,45.1-97.5,55.3c-37.7,41-52.5,98.3-52.5,166
			c0,107,71.3,206.9,205.7,206.9c239.3,0,170.9-268.8,281.1-361.8C496.5,319.3,490.8,304.1,490.4,303.3z"/>
	</g>
	<g>
		<g>
			<line class="st1" x1="505.1" y1="292.2" x2="511.3" y2="308.2"/>
		</g>
	</g>
	<g>
		<g>
			<line class="st1" x1="490.4" y1="303.3" x2="496.9" y2="319.7"/>
		</g>
	</g>
	<polygon class="st0" points="514.1,315.2 499.4,325.4 487.9,296.7 503.1,287.3 	"/>
</g>
</svg>
